HIERARCHY
ROOT Bip001_Pelvis
{
  OFFSET 7.937 94.8971 -8.5489
  CHANNELS 6 Xposition Yposition Zposition Zrotation Xrotation Yrotation
  JOINT Bip001_Spine
  {
    OFFSET 1.44608e-005 10.4157 -0.0118244
    CHANNELS 3 Zrotation Xrotation Yrotation
    JOINT Bip001_L_Thigh
    {
      OFFSET 11.2582 -10.4157 0.0118432
      CHANNELS 3 Zrotation Xrotation Yrotation
      JOINT Bip001_L_Calf
      {
        OFFSET -0.720717 -44.8687 0.366937
        CHANNELS 3 Zrotation Xrotation Yrotation
        JOINT Bip001_L_Foot
        {
          OFFSET -0.664439 -41.3745 -3.62995
          CHANNELS 3 Zrotation Xrotation Yrotation
          JOINT Bip001_L_Toe0
          {
            OFFSET 0.0541047 -10.4146 13.4033
            CHANNELS 3 Zrotation Xrotation Yrotation
            End Site
            {
              OFFSET -1.04503e-005 0 7.70137
            }
          }
        }
      }
    }
    JOINT Bip001_R_Thigh
    {
      OFFSET -11.2582 -10.4156 0.0118122
      CHANNELS 3 Zrotation Xrotation Yrotation
      JOINT Bip001_R_Calf
      {
        OFFSET 0.72059 -44.8687 0.36676
        CHANNELS 3 Zrotation Xrotation Yrotation
        JOINT Bip001_R_Foot
        {
          OFFSET 0.664321 -41.3745 -3.62979
          CHANNELS 3 Zrotation Xrotation Yrotation
          JOINT Bip001_R_Toe0
          {
            OFFSET -0.05417 -10.4146 13.4033
            CHANNELS 3 Zrotation Xrotation Yrotation
            End Site
            {
              OFFSET -1.04873e-005 0 7.70137
            }
          }
        }
      }
    }
    JOINT Bip001_Spine1
    {
      OFFSET 1.90638e-005 14.8539 1.10727
      CHANNELS 3 Zrotation Xrotation Yrotation
      JOINT Bip001_Spine2
      {
        OFFSET 2.28934e-005 14.7848 -1.7233
        CHANNELS 3 Zrotation Xrotation Yrotation
        JOINT Bip001_Neck
        {
          OFFSET 2.24514e-005 15.6905 -0.498826
          CHANNELS 3 Zrotation Xrotation Yrotation
          JOINT Bip001_L_Clavicle
          {
            OFFSET 6.17691 -0.000591152 0.00852867
            CHANNELS 3 Zrotation Xrotation Yrotation
            JOINT Bip001_L_UpperArm
            {
              OFFSET 11.773 -0.0611878 0.00197697
              CHANNELS 3 Zrotation Xrotation Yrotation
              JOINT Bip001_L_Forearm
              {
                OFFSET 26.4515 0.0817568 -2.19579
                CHANNELS 3 Zrotation Xrotation Yrotation
                JOINT Bip001_L_Hand
                {
                  OFFSET 32.8677 0.156744 1.67112
                  CHANNELS 3 Zrotation Xrotation Yrotation
                  JOINT Bip001_L_Finger0
                  {
                    OFFSET 6.16268 -2.25226 6.01674
                    CHANNELS 3 Zrotation Xrotation Yrotation
                    End Site
                    {
                      OFFSET 4.30499 -1.46662 0.618148
                    }
                  }
                  JOINT Bip001_L_Finger1
                  {
                    OFFSET 11.2957 -0.718374 -0.201963
                    CHANNELS 3 Zrotation Xrotation Yrotation
                    End Site
                    {
                      OFFSET 6.31952 -0.405163 -0.0802303
                    }
                  }
                }
              }
            }
          }
          JOINT Bip001_R_Clavicle
          {
            OFFSET -6.17691 -0.000574027 0.00851165
            CHANNELS 3 Zrotation Xrotation Yrotation
            JOINT Bip001_R_UpperArm
            {
              OFFSET -11.773 -0.0611516 0.00194365
              CHANNELS 3 Zrotation Xrotation Yrotation
              JOINT Bip001_R_Forearm
              {
                OFFSET -26.4514 0.0822334 -2.19736
                CHANNELS 3 Zrotation Xrotation Yrotation
                JOINT Bip001_R_Hand
                {
                  OFFSET -32.8677 0.156817 1.67144
                  CHANNELS 3 Zrotation Xrotation Yrotation
                  JOINT Bip001_R_Finger0
                  {
                    OFFSET -6.1627 -2.25224 6.0167
                    CHANNELS 3 Zrotation Xrotation Yrotation
                    End Site
                    {
                      OFFSET -4.30499 -1.46662 0.618134
                    }
                  }
                  JOINT Bip001_R_Finger1
                  {
                    OFFSET -11.2958 -0.718344 -0.201994
                    CHANNELS 3 Zrotation Xrotation Yrotation
                    End Site
                    {
                      OFFSET -6.31952 -0.405146 -0.0802475
                    }
                  }
                }
              }
            }
          }
          JOINT Bip001_Head
          {
            OFFSET 1.11782e-005 11.4912 2.09908
            CHANNELS 3 Zrotation Xrotation Yrotation
            End Site
            {
              OFFSET 2.95144e-005 21.2823 -2.83069e-005
            }
          }
        }
      }
    }
  }
}
MOTION
Frames:	9
Frame Time:	0.04
0.237475 95.4954 -7.03851 -0.401501 -0.237347 14.344 -0.169092 0.267624 1.40378 9.61722 -8.66108 6.02983 0.116048 9.52299 -5.86093 -7.98171 -0.672648 -6.66251 0.565263 -9.88613 0.0565647 -2.39427 -3.78073 -2.08636 2.23229 16.0313 0.51252 -6.48678 -9.77689 -20.9228 0.0279711 -11.3189 -1.11945 -0.351204 0.53094 2.80962 -0.351204 0.530939 2.80962 -1.91702 -2.28335 -2.89931 -25.6422 5.92509 -7.62231 -52.3036 33.1049 20.3298 22.59 8.33764 -37.1973 -6.5528 0.305745 -4.92718 -4.77083e-015 3.18055e-015 1.59028e-015 -1.59028e-015 0 1.59028e-015 -0.878685 3.09524 13.4258 23.3001 -33.9653 43.0888 -27.9553 -1.95419 44.7233 -26.9115 7.42802 -11.4902 -1.82074e-031 2.38542e-015 4.37326e-015 -1.32417e-031 2.38542e-015 3.18055e-015 -1.32549 0.795036 -3.05154 
0.00183176 95.4884 -7.17038 -0.325942 -0.538471 13.9721 -0.103201 0.350429 1.26503 9.71355 -8.32725 6.40768 0.177665 9.30813 -5.57167 -8.14221 -0.470306 -6.85463 0.538778 -9.88255 0.0680409 -2.34044 -3.80301 -2.2383 2.06668 16.2209 0.439075 -6.2455 -9.9829 -20.3112 -0.297444 -11.2808 -0.947541 -0.261444 0.698022 2.52965 -0.261531 0.698021 2.53 -1.39703 -2.41541 -3.17588 -25.8205 5.85719 -7.30962 -53.9642 34.3775 21.8581 22.3975 8.61197 -35.7931 -7.94421 0.177589 -4.77108 8.82781e-032 -3.18055e-015 1.59028e-015 -1.59028e-015 -3.18056e-015 1.59028e-015 -0.366102 3.38062 13.5661 22.4884 -33.2329 40.9562 -30.3575 -3.62479 50.175 -28.467 8.2407 -12.3868 -4.77083e-015 -1.59028e-015 5.96354e-016 -3.18055e-015 -1.59028e-015 -0 -1.41761 0.474464 -3.15677 
-0.0441401 95.5001 -7.35876 -0.323281 -0.615579 12.9148 -0.0229785 0.344705 1.23174 9.72903 -8.0171 6.70323 0.186769 9.20639 -4.72436 -8.25578 -0.398261 -6.87176 0.566908 -9.88328 0.00903357 -2.47638 -4.0609 -2.13979 2.02585 16.3573 0.937769 -6.116 -9.95869 -19.8833 -0.510093 -11.2568 -0.841494 -0.120926 0.688091 2.46299 -0.120927 0.688081 2.463 -1.18333 -2.52851 -3.27909 -25.7302 5.94844 -7.39666 -55.6858 35.3051 22.6594 21.5222 9.32697 -32.9239 -9.21134 0.0466667 -4.5197 3.18055e-015 0 -2.38542e-015 3.18055e-015 0 -1.59028e-015 1.85689 3.9028 13.2586 26.0352 -36.4594 41.9803 -34.4363 -1.69816 59.3574 -29.6612 9.59203 -13.2586 -5.79325e-032 1.59028e-015 2.08724e-015 1.59028e-015 1.59028e-015 1.09332e-015 -1.77767 0.501235 -3.11463 
0.0555542 95.5274 -7.49418 -0.284474 -0.913885 11.6889 0.0835487 0.38395 1.08236 9.70868 -7.46439 7.17842 0.121276 9.24259 -3.74737 -8.20243 -0.468067 -6.96162 0.54933 -9.90384 -0.0431934 -2.70472 -4.07003 -1.47882 2.073 16.3621 0.646357 -5.77907 -9.90237 -18.9852 -0.677125 -11.2571 -0.655618 0.0708395 0.768459 2.16455 0.0708526 0.768433 2.16414 -1.32177 -2.96104 -2.92528 -25.5093 6.42896 -7.32594 -56.8647 35.157 22.5363 20.6775 10.692 -29.9375 -10.6589 -0.0862937 -3.71449 -7.95139e-016 3.18055e-015 -1.59028e-015 -7.95139e-016 3.18056e-015 -7.95139e-016 4.96854 4.89021 13.0849 31.9453 -41.5895 43.8251 -38.3823 1.38454 71.117 -30.3212 11.0379 -12.4764 -4.13804e-033 -7.95139e-016 -2.98177e-016 -2.48282e-032 -1.59028e-015 -8.94531e-016 -1.9011 1.05636 -2.75741 
0.269596 95.5625 -7.54835 -0.175227 -1.31113 10.6391 0.16421 0.408531 0.9074 9.54636 -6.6768 7.23447 -0.00210203 9.07468 -3.2919 -8.07607 -0.624979 -6.40728 0.561824 -9.88464 0.0394673 -3.00561 -3.80791 -1.41367 1.87526 16.2916 0.578138 -5.08766 -9.97157 -17.8104 -0.982227 -11.2416 -0.424315 0.193287 0.818582 1.81125 0.193712 0.818583 1.81129 -1.48016 -2.85143 -2.66868 -25.4904 6.42021 -7.47969 -57.6886 35.1998 21.9345 19.073 11.2066 -26.6022 -11.5184 -0.223156 -2.50759 7.95139e-016 -3.18055e-015 7.95139e-016 1.59028e-015 0 9.93923e-016 7.93357 5.06052 11.4662 41.4465 -45.5281 46.1195 -38.1537 2.97281 85.4613 -29.7656 9.16226 -8.83731 3.97569e-016 -1.59028e-015 -7.95139e-016 7.95139e-016 0 -1.39149e-015 -1.61975 0.859239 -2.62576 
0.541753 95.607 -7.60477 -0.0863053 -1.64574 9.53345 0.168881 0.416534 0.683494 9.50658 -5.92189 7.87592 -0.183944 8.96056 -2.3895 -7.87995 -0.664609 -6.66408 0.559665 -9.89848 0.0282751 -3.28842 -3.56182 -1.39537 1.70335 16.1194 1.055 -4.50858 -9.92997 -16.9573 -1.26422 -11.2152 -0.271617 0.173031 0.834128 1.36292 0.173031 0.834111 1.36292 -1.57945 -2.42376 -2.38511 -25.5871 6.22898 -8.0449 -58.3763 35.9229 21.3224 17.046 10.4863 -23.2207 -11.9484 -0.459704 -1.33343 -1.2424e-017 -3.18055e-015 -4.47265e-016 7.45443e-017 -6.36111e-015 -3.72721e-016 11.3981 5.05578 10.7703 39.1989 -44.0433 36.7856 -32.9839 -0.167808 95.2456 -27.3662 6.66199 -5.71444 1.59028e-015 3.18055e-015 3.97569e-016 1.59028e-015 -3.18056e-015 -0 -1.01524 0.313261 -2.52788 
0.867072 95.6371 -7.66134 -0.0157138 -2.07077 8.2028 0.122422 0.484855 0.51203 9.45875 -5.16185 8.79723 -0.260812 8.99444 -2.07872 -7.68066 -0.91077 -6.50054 0.572373 -9.88767 0.0464023 -3.51607 -3.4237 -1.02184 1.58827 16.0968 1.26909 -4.0752 -9.82461 -16.0399 -1.35412 -11.2347 -0.142822 0.0673663 0.97001 1.02033 0.0673664 0.970012 1.02033 -1.32267 -2.82919 -2.36328 -26.1982 6.78397 -8.37201 -58.5962 36.5291 20.8272 15.5387 9.08624 -21.3255 -12.3608 -0.672481 -0.529413 -3.97569e-016 9.54166e-015 7.95139e-016 -1.98626e-031 9.54167e-015 1.19271e-015 15.2855 5.90023 9.74994 34.8519 -40.1542 24.9086 -27.4843 -1.18592 102.502 -22.4902 5.99068 -2.02475 -9.54166e-015 0 -7.95139e-016 -6.36111e-015 0 -7.95139e-016 -0.831315 0.300128 -2.4723 
1.21654 95.6672 -7.67691 0.0172225 -2.62709 6.92895 0.0546043 0.592329 0.312835 9.39751 -4.35775 9.35042 -0.323801 9.09982 -1.92289 -7.48561 -1.2665 -5.86318 0.580393 -9.88006 0.0607453 -3.69732 -3.1254 -0.350869 1.57462 15.9534 1.29388 -3.66326 -9.68055 -15.2615 -1.44572 -11.2466 -0.0165297 -0.0807933 1.18445 0.623279 -0.0807934 1.18445 0.623275 -0.701047 -3.09054 -2.29932 -26.812 7.29891 -9.16501 -56.73 33.2685 17.8845 13.7394 11.7137 -19.4303 -11.6622 -0.559295 -0.78549 7.95139e-016 -6.36111e-015 -1.98785e-016 7.95139e-016 -9.54167e-015 -3.97569e-016 19.3442 6.8765 9.84122 30.582 -34.9472 10.996 -24.4176 -0.649418 106.506 -15.9556 4.30938 0.0340822 0 3.18055e-015 -0 -8.82782e-032 3.18056e-015 1.59028e-015 -0.812028 -0.0313944 -2.2472 
1.5841 95.6676 -7.66634 -0.090408 -3.25748 5.61643 0.0720508 0.768233 0.0988943 9.39733 -3.7588 9.4172 -0.48065 9.66091 -1.3546 -7.27509 -1.92524 -5.13931 0.595288 -9.84305 0.0932523 -3.84414 -2.81772 -0.322871 1.2955 15.8111 1.4949 -2.97284 -9.62017 -13.945 -1.64508 -11.2425 0.159461 -0.0744489 1.5364 0.195701 -0.0746616 1.5364 0.195896 -0.879471 -3.71275 -1.95244 -26.9081 8.31788 -9.99085 -56.7437 34.8514 16.7341 12.6987 9.36972 -18.7741 -10.1798 -0.52457 -1.05079 -6.95746e-016 -3.18055e-015 3.97569e-016 -9.93923e-016 0 -0 24.2469 8.33204 10.2537 27.9357 -27.6838 -2.04021 -19.6676 1.73827 106.029 -9.49577 3.67062 -1.58996 3.18055e-015 0 -0 2.20695e-032 -7.95139e-016 1.59028e-015 -0.406855 -0.169579 -2.04082 
